<svg xmlns="http://www.w3.org/2000/svg" viewBox="0 0 67 22">
<style type="text/css">
.st0{fill:#FF9900;}
.st1{fill:#555555;stroke:#555555;stroke-width:0.05;}
.st2{fill:#FFFFFF;stroke:#FFFFFF;stroke-width:0.05;}
.st3{fill:#D3D3D3;stroke:#D3D3D3;stroke-width:0.05;}
.st4{fill:#FF9999;stroke:#FF9999;stroke-width:0.05;}
.st5{fill:#FF0000;stroke:#FF0000;stroke-width:0.05;}
.st6{fill:#FF9900;stroke:#FF9900;stroke-width:0.05;}
.st7{fill:#AAAAAA;stroke:#AAAAAA;stroke-width:0.05;}
.st8{fill:#001533;stroke:#001533;stroke-width:0.05;}
.st9{fill:#99FFF7;stroke:#99FFF7;stroke-width:0.05;}
.st10{fill:#66A5FF;stroke:#66A5FF;stroke-width:0.05;}
.st11{fill:#002A66;stroke:#002A66;stroke-width:0.05;}
.st12{fill:#005FE6;stroke:#005FE6;stroke-width:0.05;}
.st13{fill:#290033;stroke:#290033;stroke-width:0.05;}
.st14{fill:#A899FF;stroke:#A899FF;stroke-width:0.05;}
.st15{fill:#530066;stroke:#530066;stroke-width:0.05;}
.st16{fill:#BA00E6;stroke:#BA00E6;stroke-width:0.05;}
</style>
<rect class="st0" width="67" height="22"/>
<rect x="1" y="7" class="st1" width="1" height="1"/>
<rect x="1" y="8" class="st1" width="1" height="1"/>
<rect x="1" y="9" class="st1" width="1" height="1"/>
<rect x="1" y="10" class="st1" width="1" height="1"/>
<rect x="1" y="11" class="st1" width="1" height="1"/>
<rect x="1" y="12" class="st1" width="1" height="1"/>
<rect x="2" y="5" class="st1" width="1" height="1"/>
<rect x="2" y="6" class="st1" width="1" height="1"/>
<rect x="2" y="7" class="st1" width="1" height="1"/>
<rect x="2" y="8" class="st2" width="1" height="1"/>
<rect x="2" y="9" class="st2" width="1" height="1"/>
<rect x="2" y="10" class="st2" width="1" height="1"/>
<rect x="2" y="11" class="st2" width="1" height="1"/>
<rect x="2" y="12" class="st3" width="1" height="1"/>
<rect x="2" y="13" class="st1" width="1" height="1"/>
<rect x="3" y="4" class="st1" width="1" height="1"/>
<rect x="3" y="5" class="st2" width="1" height="1"/>
<rect x="3" y="6" class="st4" width="1" height="1"/>
<rect x="3" y="7" class="st2" width="1" height="1"/>
<rect x="3" y="8" class="st3" width="1" height="1"/>
<rect x="3" y="9" class="st5" width="1" height="1"/>
<rect x="3" y="10" class="st2" width="1" height="1"/>
<rect x="3" y="11" class="st2" width="1" height="1"/>
<rect x="3" y="12" class="st2" width="1" height="1"/>
<rect x="3" y="13" class="st2" width="1" height="1"/>
<rect x="3" y="14" class="st1" width="1" height="1"/>
<rect x="3" y="15" class="st1" width="1" height="1"/>
<rect x="3" y="16" class="st1" width="1" height="1"/>
<rect x="4" y="5" class="st1" width="1" height="1"/>
<rect x="4" y="6" class="st2" width="1" height="1"/>
<rect x="4" y="7" class="st2" width="1" height="1"/>
<rect x="4" y="8" class="st5" width="1" height="1"/>
<rect x="4" y="9" class="st6" width="1" height="1"/>
<rect x="4" y="10" class="st5" width="1" height="1"/>
<rect x="4" y="11" class="st2" width="1" height="1"/>
<rect x="4" y="12" class="st2" width="1" height="1"/>
<rect x="4" y="13" class="st2" width="1" height="1"/>
<rect x="4" y="14" class="st1" width="1" height="1"/>
<rect x="4" y="15" class="st2" width="1" height="1"/>
<rect x="4" y="16" class="st2" width="1" height="1"/>
<rect x="4" y="17" class="st1" width="1" height="1"/>
<rect x="5" y="6" class="st1" width="1" height="1"/>
<rect x="5" y="7" class="st2" width="1" height="1"/>
<rect x="5" y="8" class="st2" width="1" height="1"/>
<rect x="5" y="9" class="st5" width="1" height="1"/>
<rect x="5" y="10" class="st2" width="1" height="1"/>
<rect x="5" y="11" class="st2" width="1" height="1"/>
<rect x="5" y="12" class="st7" width="1" height="1"/>
<rect x="5" y="13" class="st2" width="1" height="1"/>
<rect x="5" y="14" class="st1" width="1" height="1"/>
<rect x="5" y="15" class="st3" width="1" height="1"/>
<rect x="5" y="16" class="st2" width="1" height="1"/>
<rect x="5" y="17" class="st2" width="1" height="1"/>
<rect x="5" y="18" class="st1" width="1" height="1"/>
<rect x="5" y="19" class="st1" width="1" height="1"/>
<rect x="5" y="20" class="st1" width="1" height="1"/>
<rect x="6" y="6" class="st1" width="1" height="1"/>
<rect x="6" y="7" class="st2" width="1" height="1"/>
<rect x="6" y="8" class="st2" width="1" height="1"/>
<rect x="6" y="9" class="st2" width="1" height="1"/>
<rect x="6" y="10" class="st2" width="1" height="1"/>
<rect x="6" y="11" class="st4" width="1" height="1"/>
<rect x="6" y="12" class="st2" width="1" height="1"/>
<rect x="6" y="13" class="st2" width="1" height="1"/>
<rect x="6" y="14" class="st1" width="1" height="1"/>
<rect x="6" y="15" class="st3" width="1" height="1"/>
<rect x="6" y="16" class="st3" width="1" height="1"/>
<rect x="6" y="17" class="st2" width="1" height="1"/>
<rect x="6" y="18" class="st2" width="1" height="1"/>
<rect x="6" y="19" class="st4" width="1" height="1"/>
<rect x="6" y="20" class="st1" width="1" height="1"/>
<rect x="7" y="6" class="st1" width="1" height="1"/>
<rect x="7" y="7" class="st2" width="1" height="1"/>
<rect x="7" y="8" class="st2" width="1" height="1"/>
<rect x="7" y="9" class="st5" width="1" height="1"/>
<rect x="7" y="10" class="st2" width="1" height="1"/>
<rect x="7" y="11" class="st2" width="1" height="1"/>
<rect x="7" y="12" class="st7" width="1" height="1"/>
<rect x="7" y="13" class="st2" width="1" height="1"/>
<rect x="7" y="14" class="st1" width="1" height="1"/>
<rect x="7" y="15" class="st3" width="1" height="1"/>
<rect x="7" y="16" class="st2" width="1" height="1"/>
<rect x="7" y="17" class="st1" width="1" height="1"/>
<rect x="7" y="18" class="st1" width="1" height="1"/>
<rect x="7" y="19" class="st1" width="1" height="1"/>
<rect x="7" y="20" class="st1" width="1" height="1"/>
<rect x="8" y="5" class="st1" width="1" height="1"/>
<rect x="8" y="6" class="st3" width="1" height="1"/>
<rect x="8" y="7" class="st2" width="1" height="1"/>
<rect x="8" y="8" class="st5" width="1" height="1"/>
<rect x="8" y="9" class="st6" width="1" height="1"/>
<rect x="8" y="10" class="st5" width="1" height="1"/>
<rect x="8" y="11" class="st2" width="1" height="1"/>
<rect x="8" y="12" class="st2" width="1" height="1"/>
<rect x="8" y="13" class="st2" width="1" height="1"/>
<rect x="8" y="14" class="st1" width="1" height="1"/>
<rect x="8" y="15" class="st2" width="1" height="1"/>
<rect x="8" y="16" class="st2" width="1" height="1"/>
<rect x="8" y="17" class="st2" width="1" height="1"/>
<rect x="8" y="18" class="st1" width="1" height="1"/>
<rect x="8" y="19" class="st1" width="1" height="1"/>
<rect x="8" y="20" class="st1" width="1" height="1"/>
<rect x="9" y="4" class="st1" width="1" height="1"/>
<rect x="9" y="5" class="st3" width="1" height="1"/>
<rect x="9" y="6" class="st4" width="1" height="1"/>
<rect x="9" y="7" class="st2" width="1" height="1"/>
<rect x="9" y="8" class="st2" width="1" height="1"/>
<rect x="9" y="9" class="st5" width="1" height="1"/>
<rect x="9" y="10" class="st2" width="1" height="1"/>
<rect x="9" y="11" class="st2" width="1" height="1"/>
<rect x="9" y="12" class="st2" width="1" height="1"/>
<rect x="9" y="13" class="st2" width="1" height="1"/>
<rect x="9" y="14" class="st1" width="1" height="1"/>
<rect x="9" y="15" class="st2" width="1" height="1"/>
<rect x="9" y="16" class="st1" width="1" height="1"/>
<rect x="9" y="17" class="st2" width="1" height="1"/>
<rect x="9" y="18" class="st2" width="1" height="1"/>
<rect x="9" y="19" class="st4" width="1" height="1"/>
<rect x="9" y="20" class="st1" width="1" height="1"/>
<rect x="10" y="5" class="st1" width="1" height="1"/>
<rect x="10" y="6" class="st1" width="1" height="1"/>
<rect x="10" y="7" class="st1" width="1" height="1"/>
<rect x="10" y="8" class="st2" width="1" height="1"/>
<rect x="10" y="9" class="st2" width="1" height="1"/>
<rect x="10" y="10" class="st3" width="1" height="1"/>
<rect x="10" y="11" class="st3" width="1" height="1"/>
<rect x="10" y="12" class="st2" width="1" height="1"/>
<rect x="10" y="13" class="st1" width="1" height="1"/>
<rect x="10" y="14" class="st2" width="1" height="1"/>
<rect x="10" y="15" class="st3" width="1" height="1"/>
<rect x="10" y="16" class="st7" width="1" height="1"/>
<rect x="10" y="17" class="st1" width="1" height="1"/>
<rect x="10" y="18" class="st1" width="1" height="1"/>
<rect x="10" y="19" class="st1" width="1" height="1"/>
<rect x="10" y="20" class="st1" width="1" height="1"/>
<rect x="11" y="7" class="st1" width="1" height="1"/>
<rect x="11" y="8" class="st1" width="1" height="1"/>
<rect x="11" y="9" class="st1" width="1" height="1"/>
<rect x="11" y="10" class="st1" width="1" height="1"/>
<rect x="11" y="11" class="st1" width="1" height="1"/>
<rect x="11" y="12" class="st1" width="1" height="1"/>
<rect x="11" y="13" class="st3" width="1" height="1"/>
<rect x="11" y="14" class="st3" width="1" height="1"/>
<rect x="11" y="15" class="st3" width="1" height="1"/>
<rect x="11" y="16" class="st7" width="1" height="1"/>
<rect x="11" y="17" class="st7" width="1" height="1"/>
<rect x="11" y="18" class="st7" width="1" height="1"/>
<rect x="11" y="19" class="st1" width="1" height="1"/>
<rect x="11" y="20" class="st1" width="1" height="1"/>
<rect x="12" y="9" class="st1" width="1" height="1"/>
<rect x="12" y="10" class="st2" width="1" height="1"/>
<rect x="12" y="11" class="st2" width="1" height="1"/>
<rect x="12" y="12" class="st2" width="1" height="1"/>
<rect x="12" y="13" class="st2" width="1" height="1"/>
<rect x="12" y="14" class="st3" width="1" height="1"/>
<rect x="12" y="15" class="st3" width="1" height="1"/>
<rect x="12" y="16" class="st7" width="1" height="1"/>
<rect x="12" y="17" class="st1" width="1" height="1"/>
<rect x="12" y="18" class="st1" width="1" height="1"/>
<rect x="12" y="19" class="st4" width="1" height="1"/>
<rect x="12" y="20" class="st1" width="1" height="1"/>
<rect x="13" y="9" class="st1" width="1" height="1"/>
<rect x="13" y="10" class="st3" width="1" height="1"/>
<rect x="13" y="11" class="st2" width="1" height="1"/>
<rect x="13" y="12" class="st2" width="1" height="1"/>
<rect x="13" y="13" class="st2" width="1" height="1"/>
<rect x="13" y="14" class="st2" width="1" height="1"/>
<rect x="13" y="15" class="st2" width="1" height="1"/>
<rect x="13" y="16" class="st1" width="1" height="1"/>
<rect x="13" y="17" class="st2" width="1" height="1"/>
<rect x="13" y="18" class="st2" width="1" height="1"/>
<rect x="13" y="19" class="st2" width="1" height="1"/>
<rect x="13" y="20" class="st1" width="1" height="1"/>
<rect x="14" y="9" class="st1" width="1" height="1"/>
<rect x="14" y="10" class="st3" width="1" height="1"/>
<rect x="14" y="11" class="st3" width="1" height="1"/>
<rect x="14" y="12" class="st2" width="1" height="1"/>
<rect x="14" y="13" class="st2" width="1" height="1"/>
<rect x="14" y="14" class="st2" width="1" height="1"/>
<rect x="14" y="15" class="st3" width="1" height="1"/>
<rect x="14" y="16" class="st3" width="1" height="1"/>
<rect x="14" y="17" class="st2" width="1" height="1"/>
<rect x="14" y="18" class="st2" width="1" height="1"/>
<rect x="14" y="19" class="st1" width="1" height="1"/>
<rect x="14" y="20" class="st1" width="1" height="1"/>
<rect x="15" y="9" class="st1" width="1" height="1"/>
<rect x="15" y="10" class="st3" width="1" height="1"/>
<rect x="15" y="11" class="st3" width="1" height="1"/>
<rect x="15" y="12" class="st3" width="1" height="1"/>
<rect x="15" y="13" class="st2" width="1" height="1"/>
<rect x="15" y="14" class="st2" width="1" height="1"/>
<rect x="15" y="15" class="st3" width="1" height="1"/>
<rect x="15" y="16" class="st3" width="1" height="1"/>
<rect x="15" y="17" class="st3" width="1" height="1"/>
<rect x="15" y="18" class="st1" width="1" height="1"/>
<rect x="15" y="19" class="st1" width="1" height="1"/>
<rect x="16" y="9" class="st1" width="1" height="1"/>
<rect x="16" y="10" class="st1" width="1" height="1"/>
<rect x="16" y="11" class="st3" width="1" height="1"/>
<rect x="16" y="12" class="st2" width="1" height="1"/>
<rect x="16" y="13" class="st2" width="1" height="1"/>
<rect x="16" y="14" class="st2" width="1" height="1"/>
<rect x="16" y="15" class="st2" width="1" height="1"/>
<rect x="16" y="16" class="st3" width="1" height="1"/>
<rect x="16" y="17" class="st1" width="1" height="1"/>
<rect x="16" y="18" class="st1" width="1" height="1"/>
<rect x="17" y="10" class="st1" width="1" height="1"/>
<rect x="17" y="11" class="st1" width="1" height="1"/>
<rect x="17" y="12" class="st1" width="1" height="1"/>
<rect x="17" y="13" class="st2" width="1" height="1"/>
<rect x="17" y="14" class="st2" width="1" height="1"/>
<rect x="17" y="15" class="st2" width="1" height="1"/>
<rect x="17" y="16" class="st1" width="1" height="1"/>
<rect x="17" y="17" class="st1" width="1" height="1"/>
<rect x="18" y="7" class="st1" width="1" height="1"/>
<rect x="18" y="8" class="st1" width="1" height="1"/>
<rect x="18" y="9" class="st1" width="1" height="1"/>
<rect x="18" y="12" class="st1" width="1" height="1"/>
<rect x="18" y="13" class="st2" width="1" height="1"/>
<rect x="18" y="14" class="st1" width="1" height="1"/>
<rect x="18" y="15" class="st1" width="1" height="1"/>
<rect x="18" y="16" class="st1" width="1" height="1"/>
<rect x="19" y="7" class="st1" width="1" height="1"/>
<rect x="19" y="8" class="st3" width="1" height="1"/>
<rect x="19" y="9" class="st1" width="1" height="1"/>
<rect x="19" y="10" class="st1" width="1" height="1"/>
<rect x="19" y="11" class="st1" width="1" height="1"/>
<rect x="19" y="12" class="st1" width="1" height="1"/>
<rect x="19" y="13" class="st2" width="1" height="1"/>
<rect x="19" y="14" class="st1" width="1" height="1"/>
<rect x="20" y="7" class="st1" width="1" height="1"/>
<rect x="20" y="8" class="st1" width="1" height="1"/>
<rect x="20" y="9" class="st3" width="1" height="1"/>
<rect x="20" y="10" class="st3" width="1" height="1"/>
<rect x="20" y="11" class="st2" width="1" height="1"/>
<rect x="20" y="12" class="st2" width="1" height="1"/>
<rect x="20" y="13" class="st1" width="1" height="1"/>
<rect x="20" y="14" class="st1" width="1" height="1"/>
<rect x="21" y="9" class="st1" width="1" height="1"/>
<rect x="21" y="10" class="st1" width="1" height="1"/>
<rect x="21" y="11" class="st1" width="1" height="1"/>
<rect x="21" y="12" class="st1" width="1" height="1"/>
<rect x="21" y="13" class="st1" width="1" height="1"/>
<rect x="24" y="13" class="st8" width="1" height="1"/>
<rect x="24" y="14" class="st8" width="1" height="1"/>
<rect x="24" y="15" class="st8" width="1" height="1"/>
<rect x="24" y="16" class="st8" width="1" height="1"/>
<rect x="24" y="17" class="st8" width="1" height="1"/>
<rect x="25" y="11" class="st8" width="1" height="1"/>
<rect x="25" y="12" class="st8" width="1" height="1"/>
<rect x="25" y="13" class="st8" width="1" height="1"/>
<rect x="25" y="14" class="st9" width="1" height="1"/>
<rect x="25" y="15" class="st10" width="1" height="1"/>
<rect x="25" y="16" class="st9" width="1" height="1"/>
<rect x="25" y="17" class="st8" width="1" height="1"/>
<rect x="25" y="18" class="st8" width="1" height="1"/>
<rect x="26" y="11" class="st8" width="1" height="1"/>
<rect x="26" y="12" class="st10" width="1" height="1"/>
<rect x="26" y="13" class="st9" width="1" height="1"/>
<rect x="26" y="14" class="st9" width="1" height="1"/>
<rect x="26" y="15" class="st9" width="1" height="1"/>
<rect x="26" y="16" class="st9" width="1" height="1"/>
<rect x="26" y="17" class="st9" width="1" height="1"/>
<rect x="26" y="18" class="st8" width="1" height="1"/>
<rect x="26" y="19" class="st8" width="1" height="1"/>
<rect x="27" y="11" class="st8" width="1" height="1"/>
<rect x="27" y="12" class="st9" width="1" height="1"/>
<rect x="27" y="13" class="st10" width="1" height="1"/>
<rect x="27" y="14" class="st9" width="1" height="1"/>
<rect x="27" y="15" class="st9" width="1" height="1"/>
<rect x="27" y="16" class="st8" width="1" height="1"/>
<rect x="27" y="17" class="st9" width="1" height="1"/>
<rect x="27" y="18" class="st10" width="1" height="1"/>
<rect x="27" y="19" class="st8" width="1" height="1"/>
<rect x="27" y="20" class="st8" width="1" height="1"/>
<rect x="28" y="10" class="st8" width="1" height="1"/>
<rect x="28" y="11" class="st8" width="1" height="1"/>
<rect x="28" y="12" class="st9" width="1" height="1"/>
<rect x="28" y="13" class="st9" width="1" height="1"/>
<rect x="28" y="14" class="st9" width="1" height="1"/>
<rect x="28" y="15" class="st9" width="1" height="1"/>
<rect x="28" y="16" class="st8" width="1" height="1"/>
<rect x="28" y="17" class="st8" width="1" height="1"/>
<rect x="28" y="18" class="st9" width="1" height="1"/>
<rect x="28" y="19" class="st10" width="1" height="1"/>
<rect x="28" y="20" class="st8" width="1" height="1"/>
<rect x="29" y="10" class="st8" width="1" height="1"/>
<rect x="29" y="11" class="st9" width="1" height="1"/>
<rect x="29" y="12" class="st10" width="1" height="1"/>
<rect x="29" y="13" class="st9" width="1" height="1"/>
<rect x="29" y="14" class="st9" width="1" height="1"/>
<rect x="29" y="15" class="st8" width="1" height="1"/>
<rect x="29" y="16" class="st9" width="1" height="1"/>
<rect x="29" y="17" class="st9" width="1" height="1"/>
<rect x="29" y="18" class="st8" width="1" height="1"/>
<rect x="29" y="19" class="st9" width="1" height="1"/>
<rect x="29" y="20" class="st8" width="1" height="1"/>
<rect x="30" y="10" class="st8" width="1" height="1"/>
<rect x="30" y="11" class="st9" width="1" height="1"/>
<rect x="30" y="12" class="st9" width="1" height="1"/>
<rect x="30" y="13" class="st10" width="1" height="1"/>
<rect x="30" y="14" class="st9" width="1" height="1"/>
<rect x="30" y="15" class="st9" width="1" height="1"/>
<rect x="30" y="16" class="st9" width="1" height="1"/>
<rect x="30" y="17" class="st11" width="1" height="1"/>
<rect x="30" y="18" class="st8" width="1" height="1"/>
<rect x="30" y="19" class="st10" width="1" height="1"/>
<rect x="30" y="20" class="st8" width="1" height="1"/>
<rect x="31" y="10" class="st8" width="1" height="1"/>
<rect x="31" y="11" class="st8" width="1" height="1"/>
<rect x="31" y="12" class="st9" width="1" height="1"/>
<rect x="31" y="13" class="st9" width="1" height="1"/>
<rect x="31" y="14" class="st9" width="1" height="1"/>
<rect x="31" y="15" class="st9" width="1" height="1"/>
<rect x="31" y="16" class="st9" width="1" height="1"/>
<rect x="31" y="17" class="st11" width="1" height="1"/>
<rect x="31" y="18" class="st8" width="1" height="1"/>
<rect x="31" y="19" class="st9" width="1" height="1"/>
<rect x="31" y="20" class="st8" width="1" height="1"/>
<rect x="32" y="10" class="st8" width="1" height="1"/>
<rect x="32" y="11" class="st8" width="1" height="1"/>
<rect x="32" y="12" class="st8" width="1" height="1"/>
<rect x="32" y="13" class="st8" width="1" height="1"/>
<rect x="32" y="14" class="st8" width="1" height="1"/>
<rect x="32" y="15" class="st8" width="1" height="1"/>
<rect x="32" y="16" class="st9" width="1" height="1"/>
<rect x="32" y="17" class="st8" width="1" height="1"/>
<rect x="32" y="18" class="st8" width="1" height="1"/>
<rect x="32" y="19" class="st10" width="1" height="1"/>
<rect x="32" y="20" class="st8" width="1" height="1"/>
<rect x="33" y="8" class="st8" width="1" height="1"/>
<rect x="33" y="9" class="st8" width="1" height="1"/>
<rect x="33" y="10" class="st8" width="1" height="1"/>
<rect x="33" y="11" class="st9" width="1" height="1"/>
<rect x="33" y="12" class="st10" width="1" height="1"/>
<rect x="33" y="13" class="st9" width="1" height="1"/>
<rect x="33" y="14" class="st10" width="1" height="1"/>
<rect x="33" y="15" class="st9" width="1" height="1"/>
<rect x="33" y="16" class="st8" width="1" height="1"/>
<rect x="33" y="17" class="st8" width="1" height="1"/>
<rect x="33" y="18" class="st9" width="1" height="1"/>
<rect x="33" y="19" class="st9" width="1" height="1"/>
<rect x="33" y="20" class="st8" width="1" height="1"/>
<rect x="34" y="7" class="st8" width="1" height="1"/>
<rect x="34" y="8" class="st9" width="1" height="1"/>
<rect x="34" y="9" class="st12" width="1" height="1"/>
<rect x="34" y="10" class="st9" width="1" height="1"/>
<rect x="34" y="11" class="st9" width="1" height="1"/>
<rect x="34" y="12" class="st9" width="1" height="1"/>
<rect x="34" y="13" class="st9" width="1" height="1"/>
<rect x="34" y="14" class="st9" width="1" height="1"/>
<rect x="34" y="15" class="st9" width="1" height="1"/>
<rect x="34" y="16" class="st9" width="1" height="1"/>
<rect x="34" y="17" class="st8" width="1" height="1"/>
<rect x="34" y="18" class="st8" width="1" height="1"/>
<rect x="34" y="19" class="st8" width="1" height="1"/>
<rect x="34" y="20" class="st8" width="1" height="1"/>
<rect x="35" y="8" class="st8" width="1" height="1"/>
<rect x="35" y="9" class="st9" width="1" height="1"/>
<rect x="35" y="10" class="st9" width="1" height="1"/>
<rect x="35" y="11" class="st9" width="1" height="1"/>
<rect x="35" y="12" class="st8" width="1" height="1"/>
<rect x="35" y="13" class="st9" width="1" height="1"/>
<rect x="35" y="14" class="st11" width="1" height="1"/>
<rect x="35" y="15" class="st9" width="1" height="1"/>
<rect x="35" y="16" class="st9" width="1" height="1"/>
<rect x="35" y="17" class="st8" width="1" height="1"/>
<rect x="35" y="18" class="st10" width="1" height="1"/>
<rect x="35" y="19" class="st8" width="1" height="1"/>
<rect x="36" y="9" class="st8" width="1" height="1"/>
<rect x="36" y="10" class="st10" width="1" height="1"/>
<rect x="36" y="11" class="st9" width="1" height="1"/>
<rect x="36" y="12" class="st9" width="1" height="1"/>
<rect x="36" y="13" class="st9" width="1" height="1"/>
<rect x="36" y="14" class="st9" width="1" height="1"/>
<rect x="36" y="15" class="st11" width="1" height="1"/>
<rect x="36" y="16" class="st9" width="1" height="1"/>
<rect x="36" y="17" class="st8" width="1" height="1"/>
<rect x="36" y="18" class="st9" width="1" height="1"/>
<rect x="36" y="19" class="st8" width="1" height="1"/>
<rect x="37" y="9" class="st8" width="1" height="1"/>
<rect x="37" y="10" class="st9" width="1" height="1"/>
<rect x="37" y="11" class="st9" width="1" height="1"/>
<rect x="37" y="12" class="st9" width="1" height="1"/>
<rect x="37" y="13" class="st9" width="1" height="1"/>
<rect x="37" y="14" class="st12" width="1" height="1"/>
<rect x="37" y="15" class="st9" width="1" height="1"/>
<rect x="37" y="16" class="st9" width="1" height="1"/>
<rect x="37" y="17" class="st8" width="1" height="1"/>
<rect x="37" y="18" class="st12" width="1" height="1"/>
<rect x="37" y="19" class="st8" width="1" height="1"/>
<rect x="38" y="9" class="st8" width="1" height="1"/>
<rect x="38" y="10" class="st10" width="1" height="1"/>
<rect x="38" y="11" class="st9" width="1" height="1"/>
<rect x="38" y="12" class="st9" width="1" height="1"/>
<rect x="38" y="13" class="st9" width="1" height="1"/>
<rect x="38" y="14" class="st9" width="1" height="1"/>
<rect x="38" y="15" class="st11" width="1" height="1"/>
<rect x="38" y="16" class="st9" width="1" height="1"/>
<rect x="38" y="17" class="st8" width="1" height="1"/>
<rect x="38" y="18" class="st8" width="1" height="1"/>
<rect x="38" y="19" class="st8" width="1" height="1"/>
<rect x="39" y="8" class="st8" width="1" height="1"/>
<rect x="39" y="9" class="st9" width="1" height="1"/>
<rect x="39" y="10" class="st9" width="1" height="1"/>
<rect x="39" y="11" class="st9" width="1" height="1"/>
<rect x="39" y="12" class="st8" width="1" height="1"/>
<rect x="39" y="13" class="st9" width="1" height="1"/>
<rect x="39" y="14" class="st11" width="1" height="1"/>
<rect x="39" y="15" class="st9" width="1" height="1"/>
<rect x="39" y="16" class="st9" width="1" height="1"/>
<rect x="39" y="17" class="st8" width="1" height="1"/>
<rect x="39" y="18" class="st12" width="1" height="1"/>
<rect x="39" y="19" class="st8" width="1" height="1"/>
<rect x="40" y="7" class="st8" width="1" height="1"/>
<rect x="40" y="8" class="st9" width="1" height="1"/>
<rect x="40" y="9" class="st12" width="1" height="1"/>
<rect x="40" y="10" class="st9" width="1" height="1"/>
<rect x="40" y="11" class="st9" width="1" height="1"/>
<rect x="40" y="12" class="st9" width="1" height="1"/>
<rect x="40" y="13" class="st9" width="1" height="1"/>
<rect x="40" y="14" class="st9" width="1" height="1"/>
<rect x="40" y="15" class="st9" width="1" height="1"/>
<rect x="40" y="16" class="st9" width="1" height="1"/>
<rect x="40" y="17" class="st8" width="1" height="1"/>
<rect x="40" y="18" class="st9" width="1" height="1"/>
<rect x="40" y="19" class="st8" width="1" height="1"/>
<rect x="41" y="8" class="st8" width="1" height="1"/>
<rect x="41" y="9" class="st8" width="1" height="1"/>
<rect x="41" y="10" class="st8" width="1" height="1"/>
<rect x="41" y="11" class="st9" width="1" height="1"/>
<rect x="41" y="12" class="st10" width="1" height="1"/>
<rect x="41" y="13" class="st9" width="1" height="1"/>
<rect x="41" y="14" class="st10" width="1" height="1"/>
<rect x="41" y="15" class="st9" width="1" height="1"/>
<rect x="41" y="16" class="st8" width="1" height="1"/>
<rect x="41" y="17" class="st10" width="1" height="1"/>
<rect x="41" y="18" class="st9" width="1" height="1"/>
<rect x="41" y="19" class="st8" width="1" height="1"/>
<rect x="42" y="10" class="st8" width="1" height="1"/>
<rect x="42" y="11" class="st8" width="1" height="1"/>
<rect x="42" y="12" class="st8" width="1" height="1"/>
<rect x="42" y="13" class="st8" width="1" height="1"/>
<rect x="42" y="14" class="st8" width="1" height="1"/>
<rect x="42" y="15" class="st8" width="1" height="1"/>
<rect x="42" y="16" class="st8" width="1" height="1"/>
<rect x="42" y="17" class="st9" width="1" height="1"/>
<rect x="42" y="18" class="st8" width="1" height="1"/>
<rect x="42" y="19" class="st8" width="1" height="1"/>
<rect x="43" y="15" class="st8" width="1" height="1"/>
<rect x="43" y="16" class="st8" width="1" height="1"/>
<rect x="43" y="17" class="st8" width="1" height="1"/>
<rect x="43" y="18" class="st8" width="1" height="1"/>
<rect x="46" y="7" class="st13" width="1" height="1"/>
<rect x="46" y="8" class="st13" width="1" height="1"/>
<rect x="46" y="9" class="st13" width="1" height="1"/>
<rect x="46" y="10" class="st13" width="1" height="1"/>
<rect x="46" y="11" class="st13" width="1" height="1"/>
<rect x="46" y="15" class="st13" width="1" height="1"/>
<rect x="46" y="16" class="st13" width="1" height="1"/>
<rect x="46" y="17" class="st13" width="1" height="1"/>
<rect x="47" y="4" class="st13" width="1" height="1"/>
<rect x="47" y="5" class="st13" width="1" height="1"/>
<rect x="47" y="6" class="st13" width="1" height="1"/>
<rect x="47" y="7" class="st13" width="1" height="1"/>
<rect x="47" y="8" class="st14" width="1" height="1"/>
<rect x="47" y="9" class="st14" width="1" height="1"/>
<rect x="47" y="10" class="st14" width="1" height="1"/>
<rect x="47" y="11" class="st13" width="1" height="1"/>
<rect x="47" y="12" class="st13" width="1" height="1"/>
<rect x="47" y="13" class="st13" width="1" height="1"/>
<rect x="47" y="14" class="st13" width="1" height="1"/>
<rect x="47" y="15" class="st14" width="1" height="1"/>
<rect x="47" y="16" class="st14" width="1" height="1"/>
<rect x="47" y="17" class="st13" width="1" height="1"/>
<rect x="47" y="18" class="st13" width="1" height="1"/>
<rect x="47" y="19" class="st13" width="1" height="1"/>
<rect x="48" y="1" class="st13" width="1" height="1"/>
<rect x="48" y="2" class="st13" width="1" height="1"/>
<rect x="48" y="3" class="st13" width="1" height="1"/>
<rect x="48" y="4" class="st13" width="1" height="1"/>
<rect x="48" y="5" class="st14" width="1" height="1"/>
<rect x="48" y="6" class="st13" width="1" height="1"/>
<rect x="48" y="7" class="st14" width="1" height="1"/>
<rect x="48" y="8" class="st14" width="1" height="1"/>
<rect x="48" y="9" class="st14" width="1" height="1"/>
<rect x="48" y="10" class="st14" width="1" height="1"/>
<rect x="48" y="11" class="st14" width="1" height="1"/>
<rect x="48" y="12" class="st14" width="1" height="1"/>
<rect x="48" y="13" class="st14" width="1" height="1"/>
<rect x="48" y="14" class="st14" width="1" height="1"/>
<rect x="48" y="15" class="st14" width="1" height="1"/>
<rect x="48" y="16" class="st14" width="1" height="1"/>
<rect x="48" y="17" class="st14" width="1" height="1"/>
<rect x="48" y="18" class="st14" width="1" height="1"/>
<rect x="48" y="19" class="st13" width="1" height="1"/>
<rect x="48" y="20" class="st13" width="1" height="1"/>
<rect x="49" y="1" class="st13" width="1" height="1"/>
<rect x="49" y="2" class="st14" width="1" height="1"/>
<rect x="49" y="3" class="st14" width="1" height="1"/>
<rect x="49" y="4" class="st14" width="1" height="1"/>
<rect x="49" y="5" class="st14" width="1" height="1"/>
<rect x="49" y="6" class="st13" width="1" height="1"/>
<rect x="49" y="7" class="st14" width="1" height="1"/>
<rect x="49" y="8" class="st14" width="1" height="1"/>
<rect x="49" y="9" class="st14" width="1" height="1"/>
<rect x="49" y="10" class="st14" width="1" height="1"/>
<rect x="49" y="11" class="st14" width="1" height="1"/>
<rect x="49" y="12" class="st14" width="1" height="1"/>
<rect x="49" y="13" class="st14" width="1" height="1"/>
<rect x="49" y="14" class="st14" width="1" height="1"/>
<rect x="49" y="15" class="st14" width="1" height="1"/>
<rect x="49" y="16" class="st13" width="1" height="1"/>
<rect x="49" y="17" class="st13" width="1" height="1"/>
<rect x="49" y="18" class="st14" width="1" height="1"/>
<rect x="49" y="19" class="st14" width="1" height="1"/>
<rect x="49" y="20" class="st13" width="1" height="1"/>
<rect x="50" y="0" class="st13" width="1" height="1"/>
<rect x="50" y="1" class="st13" width="1" height="1"/>
<rect x="50" y="2" class="st14" width="1" height="1"/>
<rect x="50" y="3" class="st13" width="1" height="1"/>
<rect x="50" y="4" class="st13" width="1" height="1"/>
<rect x="50" y="5" class="st13" width="1" height="1"/>
<rect x="50" y="6" class="st13" width="1" height="1"/>
<rect x="50" y="7" class="st14" width="1" height="1"/>
<rect x="50" y="8" class="st14" width="1" height="1"/>
<rect x="50" y="9" class="st14" width="1" height="1"/>
<rect x="50" y="10" class="st14" width="1" height="1"/>
<rect x="50" y="11" class="st14" width="1" height="1"/>
<rect x="50" y="12" class="st14" width="1" height="1"/>
<rect x="50" y="13" class="st15" width="1" height="1"/>
<rect x="50" y="14" class="st15" width="1" height="1"/>
<rect x="50" y="15" class="st13" width="1" height="1"/>
<rect x="50" y="16" class="st13" width="1" height="1"/>
<rect x="50" y="17" class="st13" width="1" height="1"/>
<rect x="50" y="18" class="st13" width="1" height="1"/>
<rect x="50" y="19" class="st16" width="1" height="1"/>
<rect x="50" y="20" class="st13" width="1" height="1"/>
<rect x="51" y="0" class="st13" width="1" height="1"/>
<rect x="51" y="1" class="st14" width="1" height="1"/>
<rect x="51" y="2" class="st14" width="1" height="1"/>
<rect x="51" y="3" class="st13" width="1" height="1"/>
<rect x="51" y="6" class="st13" width="1" height="1"/>
<rect x="51" y="7" class="st14" width="1" height="1"/>
<rect x="51" y="8" class="st14" width="1" height="1"/>
<rect x="51" y="9" class="st14" width="1" height="1"/>
<rect x="51" y="10" class="st14" width="1" height="1"/>
<rect x="51" y="11" class="st14" width="1" height="1"/>
<rect x="51" y="12" class="st14" width="1" height="1"/>
<rect x="51" y="13" class="st14" width="1" height="1"/>
<rect x="51" y="14" class="st15" width="1" height="1"/>
<rect x="51" y="15" class="st15" width="1" height="1"/>
<rect x="51" y="16" class="st13" width="1" height="1"/>
<rect x="51" y="17" class="st14" width="1" height="1"/>
<rect x="51" y="18" class="st13" width="1" height="1"/>
<rect x="51" y="19" class="st13" width="1" height="1"/>
<rect x="51" y="20" class="st13" width="1" height="1"/>
<rect x="52" y="0" class="st13" width="1" height="1"/>
<rect x="52" y="1" class="st14" width="1" height="1"/>
<rect x="52" y="2" class="st13" width="1" height="1"/>
<rect x="52" y="6" class="st13" width="1" height="1"/>
<rect x="52" y="7" class="st13" width="1" height="1"/>
<rect x="52" y="8" class="st14" width="1" height="1"/>
<rect x="52" y="9" class="st14" width="1" height="1"/>
<rect x="52" y="10" class="st14" width="1" height="1"/>
<rect x="52" y="11" class="st14" width="1" height="1"/>
<rect x="52" y="12" class="st14" width="1" height="1"/>
<rect x="52" y="13" class="st14" width="1" height="1"/>
<rect x="52" y="14" class="st15" width="1" height="1"/>
<rect x="52" y="15" class="st15" width="1" height="1"/>
<rect x="52" y="16" class="st13" width="1" height="1"/>
<rect x="52" y="17" class="st14" width="1" height="1"/>
<rect x="52" y="18" class="st14" width="1" height="1"/>
<rect x="52" y="19" class="st13" width="1" height="1"/>
<rect x="53" y="0" class="st13" width="1" height="1"/>
<rect x="53" y="1" class="st14" width="1" height="1"/>
<rect x="53" y="2" class="st13" width="1" height="1"/>
<rect x="53" y="7" class="st13" width="1" height="1"/>
<rect x="53" y="8" class="st13" width="1" height="1"/>
<rect x="53" y="9" class="st14" width="1" height="1"/>
<rect x="53" y="10" class="st14" width="1" height="1"/>
<rect x="53" y="11" class="st14" width="1" height="1"/>
<rect x="53" y="12" class="st14" width="1" height="1"/>
<rect x="53" y="13" class="st14" width="1" height="1"/>
<rect x="53" y="14" class="st14" width="1" height="1"/>
<rect x="53" y="15" class="st15" width="1" height="1"/>
<rect x="53" y="16" class="st13" width="1" height="1"/>
<rect x="53" y="17" class="st13" width="1" height="1"/>
<rect x="53" y="18" class="st16" width="1" height="1"/>
<rect x="53" y="19" class="st13" width="1" height="1"/>
<rect x="54" y="0" class="st13" width="1" height="1"/>
<rect x="54" y="1" class="st14" width="1" height="1"/>
<rect x="54" y="2" class="st14" width="1" height="1"/>
<rect x="54" y="3" class="st13" width="1" height="1"/>
<rect x="54" y="8" class="st13" width="1" height="1"/>
<rect x="54" y="9" class="st13" width="1" height="1"/>
<rect x="54" y="10" class="st14" width="1" height="1"/>
<rect x="54" y="11" class="st14" width="1" height="1"/>
<rect x="54" y="12" class="st14" width="1" height="1"/>
<rect x="54" y="13" class="st14" width="1" height="1"/>
<rect x="54" y="14" class="st14" width="1" height="1"/>
<rect x="54" y="15" class="st14" width="1" height="1"/>
<rect x="54" y="16" class="st14" width="1" height="1"/>
<rect x="54" y="17" class="st13" width="1" height="1"/>
<rect x="54" y="18" class="st13" width="1" height="1"/>
<rect x="54" y="19" class="st13" width="1" height="1"/>
<rect x="55" y="0" class="st13" width="1" height="1"/>
<rect x="55" y="1" class="st13" width="1" height="1"/>
<rect x="55" y="2" class="st13" width="1" height="1"/>
<rect x="55" y="3" class="st13" width="1" height="1"/>
<rect x="55" y="8" class="st13" width="1" height="1"/>
<rect x="55" y="9" class="st13" width="1" height="1"/>
<rect x="55" y="10" class="st13" width="1" height="1"/>
<rect x="55" y="11" class="st13" width="1" height="1"/>
<rect x="55" y="12" class="st13" width="1" height="1"/>
<rect x="55" y="13" class="st13" width="1" height="1"/>
<rect x="55" y="14" class="st13" width="1" height="1"/>
<rect x="55" y="15" class="st13" width="1" height="1"/>
<rect x="55" y="16" class="st14" width="1" height="1"/>
<rect x="55" y="17" class="st13" width="1" height="1"/>
<rect x="55" y="18" class="st13" width="1" height="1"/>
<rect x="56" y="6" class="st13" width="1" height="1"/>
<rect x="56" y="7" class="st13" width="1" height="1"/>
<rect x="56" y="8" class="st14" width="1" height="1"/>
<rect x="56" y="9" class="st14" width="1" height="1"/>
<rect x="56" y="10" class="st14" width="1" height="1"/>
<rect x="56" y="11" class="st14" width="1" height="1"/>
<rect x="56" y="12" class="st14" width="1" height="1"/>
<rect x="56" y="13" class="st14" width="1" height="1"/>
<rect x="56" y="14" class="st14" width="1" height="1"/>
<rect x="56" y="15" class="st13" width="1" height="1"/>
<rect x="56" y="16" class="st14" width="1" height="1"/>
<rect x="56" y="17" class="st14" width="1" height="1"/>
<rect x="56" y="18" class="st13" width="1" height="1"/>
<rect x="57" y="6" class="st13" width="1" height="1"/>
<rect x="57" y="7" class="st14" width="1" height="1"/>
<rect x="57" y="8" class="st16" width="1" height="1"/>
<rect x="57" y="9" class="st14" width="1" height="1"/>
<rect x="57" y="10" class="st14" width="1" height="1"/>
<rect x="57" y="11" class="st14" width="1" height="1"/>
<rect x="57" y="12" class="st14" width="1" height="1"/>
<rect x="57" y="13" class="st14" width="1" height="1"/>
<rect x="57" y="14" class="st14" width="1" height="1"/>
<rect x="57" y="15" class="st14" width="1" height="1"/>
<rect x="57" y="16" class="st13" width="1" height="1"/>
<rect x="57" y="17" class="st14" width="1" height="1"/>
<rect x="57" y="18" class="st13" width="1" height="1"/>
<rect x="57" y="19" class="st13" width="1" height="1"/>
<rect x="58" y="7" class="st13" width="1" height="1"/>
<rect x="58" y="8" class="st14" width="1" height="1"/>
<rect x="58" y="9" class="st14" width="1" height="1"/>
<rect x="58" y="10" class="st15" width="1" height="1"/>
<rect x="58" y="11" class="st13" width="1" height="1"/>
<rect x="58" y="12" class="st14" width="1" height="1"/>
<rect x="58" y="13" class="st14" width="1" height="1"/>
<rect x="58" y="14" class="st14" width="1" height="1"/>
<rect x="58" y="15" class="st14" width="1" height="1"/>
<rect x="58" y="16" class="st13" width="1" height="1"/>
<rect x="58" y="17" class="st14" width="1" height="1"/>
<rect x="58" y="18" class="st14" width="1" height="1"/>
<rect x="58" y="19" class="st13" width="1" height="1"/>
<rect x="58" y="20" class="st13" width="1" height="1"/>
<rect x="59" y="8" class="st13" width="1" height="1"/>
<rect x="59" y="9" class="st14" width="1" height="1"/>
<rect x="59" y="10" class="st14" width="1" height="1"/>
<rect x="59" y="11" class="st14" width="1" height="1"/>
<rect x="59" y="12" class="st14" width="1" height="1"/>
<rect x="59" y="13" class="st14" width="1" height="1"/>
<rect x="59" y="14" class="st15" width="1" height="1"/>
<rect x="59" y="15" class="st14" width="1" height="1"/>
<rect x="59" y="16" class="st13" width="1" height="1"/>
<rect x="59" y="17" class="st14" width="1" height="1"/>
<rect x="59" y="18" class="st14" width="1" height="1"/>
<rect x="59" y="19" class="st16" width="1" height="1"/>
<rect x="59" y="20" class="st13" width="1" height="1"/>
<rect x="60" y="8" class="st13" width="1" height="1"/>
<rect x="60" y="9" class="st14" width="1" height="1"/>
<rect x="60" y="10" class="st14" width="1" height="1"/>
<rect x="60" y="11" class="st14" width="1" height="1"/>
<rect x="60" y="12" class="st14" width="1" height="1"/>
<rect x="60" y="13" class="st16" width="1" height="1"/>
<rect x="60" y="14" class="st14" width="1" height="1"/>
<rect x="60" y="15" class="st14" width="1" height="1"/>
<rect x="60" y="16" class="st13" width="1" height="1"/>
<rect x="60" y="17" class="st14" width="1" height="1"/>
<rect x="60" y="18" class="st13" width="1" height="1"/>
<rect x="60" y="19" class="st13" width="1" height="1"/>
<rect x="60" y="20" class="st13" width="1" height="1"/>
<rect x="61" y="8" class="st13" width="1" height="1"/>
<rect x="61" y="9" class="st14" width="1" height="1"/>
<rect x="61" y="10" class="st14" width="1" height="1"/>
<rect x="61" y="11" class="st14" width="1" height="1"/>
<rect x="61" y="12" class="st14" width="1" height="1"/>
<rect x="61" y="13" class="st14" width="1" height="1"/>
<rect x="61" y="14" class="st15" width="1" height="1"/>
<rect x="61" y="15" class="st14" width="1" height="1"/>
<rect x="61" y="16" class="st13" width="1" height="1"/>
<rect x="61" y="17" class="st14" width="1" height="1"/>
<rect x="61" y="18" class="st14" width="1" height="1"/>
<rect x="61" y="19" class="st13" width="1" height="1"/>
<rect x="62" y="6" class="st13" width="1" height="1"/>
<rect x="62" y="7" class="st13" width="1" height="1"/>
<rect x="62" y="8" class="st14" width="1" height="1"/>
<rect x="62" y="9" class="st14" width="1" height="1"/>
<rect x="62" y="10" class="st15" width="1" height="1"/>
<rect x="62" y="11" class="st13" width="1" height="1"/>
<rect x="62" y="12" class="st14" width="1" height="1"/>
<rect x="62" y="13" class="st14" width="1" height="1"/>
<rect x="62" y="14" class="st14" width="1" height="1"/>
<rect x="62" y="15" class="st14" width="1" height="1"/>
<rect x="62" y="16" class="st13" width="1" height="1"/>
<rect x="62" y="17" class="st14" width="1" height="1"/>
<rect x="62" y="18" class="st14" width="1" height="1"/>
<rect x="62" y="19" class="st13" width="1" height="1"/>
<rect x="62" y="20" class="st13" width="1" height="1"/>
<rect x="63" y="6" class="st13" width="1" height="1"/>
<rect x="63" y="7" class="st14" width="1" height="1"/>
<rect x="63" y="8" class="st16" width="1" height="1"/>
<rect x="63" y="9" class="st14" width="1" height="1"/>
<rect x="63" y="10" class="st14" width="1" height="1"/>
<rect x="63" y="11" class="st14" width="1" height="1"/>
<rect x="63" y="12" class="st14" width="1" height="1"/>
<rect x="63" y="13" class="st14" width="1" height="1"/>
<rect x="63" y="14" class="st14" width="1" height="1"/>
<rect x="63" y="15" class="st14" width="1" height="1"/>
<rect x="63" y="16" class="st13" width="1" height="1"/>
<rect x="63" y="17" class="st13" width="1" height="1"/>
<rect x="63" y="18" class="st14" width="1" height="1"/>
<rect x="63" y="19" class="st14" width="1" height="1"/>
<rect x="63" y="20" class="st13" width="1" height="1"/>
<rect x="64" y="7" class="st13" width="1" height="1"/>
<rect x="64" y="8" class="st14" width="1" height="1"/>
<rect x="64" y="9" class="st14" width="1" height="1"/>
<rect x="64" y="10" class="st14" width="1" height="1"/>
<rect x="64" y="11" class="st14" width="1" height="1"/>
<rect x="64" y="12" class="st14" width="1" height="1"/>
<rect x="64" y="13" class="st14" width="1" height="1"/>
<rect x="64" y="14" class="st14" width="1" height="1"/>
<rect x="64" y="15" class="st13" width="1" height="1"/>
<rect x="64" y="17" class="st13" width="1" height="1"/>
<rect x="64" y="18" class="st13" width="1" height="1"/>
<rect x="64" y="19" class="st16" width="1" height="1"/>
<rect x="64" y="20" class="st13" width="1" height="1"/>
<rect x="65" y="8" class="st13" width="1" height="1"/>
<rect x="65" y="9" class="st13" width="1" height="1"/>
<rect x="65" y="10" class="st13" width="1" height="1"/>
<rect x="65" y="11" class="st13" width="1" height="1"/>
<rect x="65" y="12" class="st13" width="1" height="1"/>
<rect x="65" y="13" class="st13" width="1" height="1"/>
<rect x="65" y="14" class="st13" width="1" height="1"/>
<rect x="65" y="18" class="st13" width="1" height="1"/>
<rect x="65" y="19" class="st13" width="1" height="1"/>
<rect x="65" y="20" class="st13" width="1" height="1"/>
</svg>
