<svg viewBox="0 0 22 22" xmlns="http://www.w3.org/2000/svg">
<rect x="0" y="0" width="22" height="22" fill="#ff9900" /><rect x="0" y="7" width="1" height="1" fill="#555555" stroke="#555555" stroke-width="0.05" />
<rect x="0" y="8" width="1" height="1" fill="#555555" stroke="#555555" stroke-width="0.05" />
<rect x="0" y="9" width="1" height="1" fill="#555555" stroke="#555555" stroke-width="0.05" />
<rect x="0" y="10" width="1" height="1" fill="#555555" stroke="#555555" stroke-width="0.05" />
<rect x="0" y="11" width="1" height="1" fill="#555555" stroke="#555555" stroke-width="0.05" />
<rect x="0" y="12" width="1" height="1" fill="#555555" stroke="#555555" stroke-width="0.05" />
<rect x="1" y="5" width="1" height="1" fill="#555555" stroke="#555555" stroke-width="0.05" />
<rect x="1" y="6" width="1" height="1" fill="#555555" stroke="#555555" stroke-width="0.05" />
<rect x="1" y="7" width="1" height="1" fill="#555555" stroke="#555555" stroke-width="0.05" />
<rect x="1" y="8" width="1" height="1" fill="#ffffff" stroke="#ffffff" stroke-width="0.05" />
<rect x="1" y="9" width="1" height="1" fill="#ffffff" stroke="#ffffff" stroke-width="0.05" />
<rect x="1" y="10" width="1" height="1" fill="#ffffff" stroke="#ffffff" stroke-width="0.05" />
<rect x="1" y="11" width="1" height="1" fill="#ffffff" stroke="#ffffff" stroke-width="0.05" />
<rect x="1" y="12" width="1" height="1" fill="#d3d3d3" stroke="#d3d3d3" stroke-width="0.05" />
<rect x="1" y="13" width="1" height="1" fill="#555555" stroke="#555555" stroke-width="0.05" />
<rect x="2" y="4" width="1" height="1" fill="#555555" stroke="#555555" stroke-width="0.05" />
<rect x="2" y="5" width="1" height="1" fill="#ffffff" stroke="#ffffff" stroke-width="0.05" />
<rect x="2" y="6" width="1" height="1" fill="#ff9999" stroke="#ff9999" stroke-width="0.05" />
<rect x="2" y="7" width="1" height="1" fill="#ffffff" stroke="#ffffff" stroke-width="0.05" />
<rect x="2" y="8" width="1" height="1" fill="#d3d3d3" stroke="#d3d3d3" stroke-width="0.05" />
<rect x="2" y="9" width="1" height="1" fill="#ff0000" stroke="#ff0000" stroke-width="0.05" />
<rect x="2" y="10" width="1" height="1" fill="#ffffff" stroke="#ffffff" stroke-width="0.05" />
<rect x="2" y="11" width="1" height="1" fill="#ffffff" stroke="#ffffff" stroke-width="0.05" />
<rect x="2" y="12" width="1" height="1" fill="#ffffff" stroke="#ffffff" stroke-width="0.05" />
<rect x="2" y="13" width="1" height="1" fill="#ffffff" stroke="#ffffff" stroke-width="0.05" />
<rect x="2" y="14" width="1" height="1" fill="#555555" stroke="#555555" stroke-width="0.05" />
<rect x="2" y="15" width="1" height="1" fill="#555555" stroke="#555555" stroke-width="0.05" />
<rect x="2" y="16" width="1" height="1" fill="#555555" stroke="#555555" stroke-width="0.05" />
<rect x="3" y="5" width="1" height="1" fill="#555555" stroke="#555555" stroke-width="0.05" />
<rect x="3" y="6" width="1" height="1" fill="#ffffff" stroke="#ffffff" stroke-width="0.05" />
<rect x="3" y="7" width="1" height="1" fill="#ffffff" stroke="#ffffff" stroke-width="0.05" />
<rect x="3" y="8" width="1" height="1" fill="#ff0000" stroke="#ff0000" stroke-width="0.05" />
<rect x="3" y="9" width="1" height="1" fill="#ff9900" stroke="#ff9900" stroke-width="0.05" />
<rect x="3" y="10" width="1" height="1" fill="#ff0000" stroke="#ff0000" stroke-width="0.05" />
<rect x="3" y="11" width="1" height="1" fill="#ffffff" stroke="#ffffff" stroke-width="0.05" />
<rect x="3" y="12" width="1" height="1" fill="#ffffff" stroke="#ffffff" stroke-width="0.05" />
<rect x="3" y="13" width="1" height="1" fill="#ffffff" stroke="#ffffff" stroke-width="0.05" />
<rect x="3" y="14" width="1" height="1" fill="#555555" stroke="#555555" stroke-width="0.05" />
<rect x="3" y="15" width="1" height="1" fill="#ffffff" stroke="#ffffff" stroke-width="0.05" />
<rect x="3" y="16" width="1" height="1" fill="#ffffff" stroke="#ffffff" stroke-width="0.05" />
<rect x="3" y="17" width="1" height="1" fill="#555555" stroke="#555555" stroke-width="0.05" />
<rect x="4" y="6" width="1" height="1" fill="#555555" stroke="#555555" stroke-width="0.05" />
<rect x="4" y="7" width="1" height="1" fill="#ffffff" stroke="#ffffff" stroke-width="0.05" />
<rect x="4" y="8" width="1" height="1" fill="#ffffff" stroke="#ffffff" stroke-width="0.05" />
<rect x="4" y="9" width="1" height="1" fill="#ff0000" stroke="#ff0000" stroke-width="0.05" />
<rect x="4" y="10" width="1" height="1" fill="#ffffff" stroke="#ffffff" stroke-width="0.05" />
<rect x="4" y="11" width="1" height="1" fill="#ffffff" stroke="#ffffff" stroke-width="0.05" />
<rect x="4" y="12" width="1" height="1" fill="#aaaaaa" stroke="#aaaaaa" stroke-width="0.05" />
<rect x="4" y="13" width="1" height="1" fill="#ffffff" stroke="#ffffff" stroke-width="0.05" />
<rect x="4" y="14" width="1" height="1" fill="#555555" stroke="#555555" stroke-width="0.05" />
<rect x="4" y="15" width="1" height="1" fill="#d3d3d3" stroke="#d3d3d3" stroke-width="0.05" />
<rect x="4" y="16" width="1" height="1" fill="#ffffff" stroke="#ffffff" stroke-width="0.05" />
<rect x="4" y="17" width="1" height="1" fill="#ffffff" stroke="#ffffff" stroke-width="0.05" />
<rect x="4" y="18" width="1" height="1" fill="#555555" stroke="#555555" stroke-width="0.05" />
<rect x="4" y="19" width="1" height="1" fill="#555555" stroke="#555555" stroke-width="0.05" />
<rect x="4" y="20" width="1" height="1" fill="#555555" stroke="#555555" stroke-width="0.05" />
<rect x="5" y="6" width="1" height="1" fill="#555555" stroke="#555555" stroke-width="0.05" />
<rect x="5" y="7" width="1" height="1" fill="#ffffff" stroke="#ffffff" stroke-width="0.05" />
<rect x="5" y="8" width="1" height="1" fill="#ffffff" stroke="#ffffff" stroke-width="0.05" />
<rect x="5" y="9" width="1" height="1" fill="#ffffff" stroke="#ffffff" stroke-width="0.05" />
<rect x="5" y="10" width="1" height="1" fill="#ffffff" stroke="#ffffff" stroke-width="0.05" />
<rect x="5" y="11" width="1" height="1" fill="#ff9999" stroke="#ff9999" stroke-width="0.05" />
<rect x="5" y="12" width="1" height="1" fill="#ffffff" stroke="#ffffff" stroke-width="0.05" />
<rect x="5" y="13" width="1" height="1" fill="#ffffff" stroke="#ffffff" stroke-width="0.05" />
<rect x="5" y="14" width="1" height="1" fill="#555555" stroke="#555555" stroke-width="0.05" />
<rect x="5" y="15" width="1" height="1" fill="#d3d3d3" stroke="#d3d3d3" stroke-width="0.05" />
<rect x="5" y="16" width="1" height="1" fill="#d3d3d3" stroke="#d3d3d3" stroke-width="0.05" />
<rect x="5" y="17" width="1" height="1" fill="#ffffff" stroke="#ffffff" stroke-width="0.05" />
<rect x="5" y="18" width="1" height="1" fill="#ffffff" stroke="#ffffff" stroke-width="0.05" />
<rect x="5" y="19" width="1" height="1" fill="#ff9999" stroke="#ff9999" stroke-width="0.05" />
<rect x="5" y="20" width="1" height="1" fill="#555555" stroke="#555555" stroke-width="0.05" />
<rect x="6" y="6" width="1" height="1" fill="#555555" stroke="#555555" stroke-width="0.05" />
<rect x="6" y="7" width="1" height="1" fill="#ffffff" stroke="#ffffff" stroke-width="0.05" />
<rect x="6" y="8" width="1" height="1" fill="#ffffff" stroke="#ffffff" stroke-width="0.05" />
<rect x="6" y="9" width="1" height="1" fill="#ff0000" stroke="#ff0000" stroke-width="0.05" />
<rect x="6" y="10" width="1" height="1" fill="#ffffff" stroke="#ffffff" stroke-width="0.05" />
<rect x="6" y="11" width="1" height="1" fill="#ffffff" stroke="#ffffff" stroke-width="0.05" />
<rect x="6" y="12" width="1" height="1" fill="#aaaaaa" stroke="#aaaaaa" stroke-width="0.05" />
<rect x="6" y="13" width="1" height="1" fill="#ffffff" stroke="#ffffff" stroke-width="0.05" />
<rect x="6" y="14" width="1" height="1" fill="#555555" stroke="#555555" stroke-width="0.05" />
<rect x="6" y="15" width="1" height="1" fill="#d3d3d3" stroke="#d3d3d3" stroke-width="0.05" />
<rect x="6" y="16" width="1" height="1" fill="#ffffff" stroke="#ffffff" stroke-width="0.05" />
<rect x="6" y="17" width="1" height="1" fill="#555555" stroke="#555555" stroke-width="0.05" />
<rect x="6" y="18" width="1" height="1" fill="#555555" stroke="#555555" stroke-width="0.05" />
<rect x="6" y="19" width="1" height="1" fill="#555555" stroke="#555555" stroke-width="0.05" />
<rect x="6" y="20" width="1" height="1" fill="#555555" stroke="#555555" stroke-width="0.05" />
<rect x="7" y="5" width="1" height="1" fill="#555555" stroke="#555555" stroke-width="0.05" />
<rect x="7" y="6" width="1" height="1" fill="#d3d3d3" stroke="#d3d3d3" stroke-width="0.05" />
<rect x="7" y="7" width="1" height="1" fill="#ffffff" stroke="#ffffff" stroke-width="0.05" />
<rect x="7" y="8" width="1" height="1" fill="#ff0000" stroke="#ff0000" stroke-width="0.05" />
<rect x="7" y="9" width="1" height="1" fill="#ff9900" stroke="#ff9900" stroke-width="0.05" />
<rect x="7" y="10" width="1" height="1" fill="#ff0000" stroke="#ff0000" stroke-width="0.05" />
<rect x="7" y="11" width="1" height="1" fill="#ffffff" stroke="#ffffff" stroke-width="0.05" />
<rect x="7" y="12" width="1" height="1" fill="#ffffff" stroke="#ffffff" stroke-width="0.05" />
<rect x="7" y="13" width="1" height="1" fill="#ffffff" stroke="#ffffff" stroke-width="0.05" />
<rect x="7" y="14" width="1" height="1" fill="#555555" stroke="#555555" stroke-width="0.05" />
<rect x="7" y="15" width="1" height="1" fill="#ffffff" stroke="#ffffff" stroke-width="0.05" />
<rect x="7" y="16" width="1" height="1" fill="#ffffff" stroke="#ffffff" stroke-width="0.05" />
<rect x="7" y="17" width="1" height="1" fill="#ffffff" stroke="#ffffff" stroke-width="0.05" />
<rect x="7" y="18" width="1" height="1" fill="#555555" stroke="#555555" stroke-width="0.05" />
<rect x="7" y="19" width="1" height="1" fill="#555555" stroke="#555555" stroke-width="0.05" />
<rect x="7" y="20" width="1" height="1" fill="#555555" stroke="#555555" stroke-width="0.05" />
<rect x="8" y="4" width="1" height="1" fill="#555555" stroke="#555555" stroke-width="0.05" />
<rect x="8" y="5" width="1" height="1" fill="#d3d3d3" stroke="#d3d3d3" stroke-width="0.05" />
<rect x="8" y="6" width="1" height="1" fill="#ff9999" stroke="#ff9999" stroke-width="0.05" />
<rect x="8" y="7" width="1" height="1" fill="#ffffff" stroke="#ffffff" stroke-width="0.05" />
<rect x="8" y="8" width="1" height="1" fill="#ffffff" stroke="#ffffff" stroke-width="0.05" />
<rect x="8" y="9" width="1" height="1" fill="#ff0000" stroke="#ff0000" stroke-width="0.05" />
<rect x="8" y="10" width="1" height="1" fill="#ffffff" stroke="#ffffff" stroke-width="0.05" />
<rect x="8" y="11" width="1" height="1" fill="#ffffff" stroke="#ffffff" stroke-width="0.05" />
<rect x="8" y="12" width="1" height="1" fill="#ffffff" stroke="#ffffff" stroke-width="0.05" />
<rect x="8" y="13" width="1" height="1" fill="#ffffff" stroke="#ffffff" stroke-width="0.05" />
<rect x="8" y="14" width="1" height="1" fill="#555555" stroke="#555555" stroke-width="0.05" />
<rect x="8" y="15" width="1" height="1" fill="#ffffff" stroke="#ffffff" stroke-width="0.05" />
<rect x="8" y="16" width="1" height="1" fill="#555555" stroke="#555555" stroke-width="0.05" />
<rect x="8" y="17" width="1" height="1" fill="#ffffff" stroke="#ffffff" stroke-width="0.05" />
<rect x="8" y="18" width="1" height="1" fill="#ffffff" stroke="#ffffff" stroke-width="0.05" />
<rect x="8" y="19" width="1" height="1" fill="#ff9999" stroke="#ff9999" stroke-width="0.05" />
<rect x="8" y="20" width="1" height="1" fill="#555555" stroke="#555555" stroke-width="0.05" />
<rect x="9" y="5" width="1" height="1" fill="#555555" stroke="#555555" stroke-width="0.05" />
<rect x="9" y="6" width="1" height="1" fill="#555555" stroke="#555555" stroke-width="0.05" />
<rect x="9" y="7" width="1" height="1" fill="#555555" stroke="#555555" stroke-width="0.05" />
<rect x="9" y="8" width="1" height="1" fill="#ffffff" stroke="#ffffff" stroke-width="0.05" />
<rect x="9" y="9" width="1" height="1" fill="#ffffff" stroke="#ffffff" stroke-width="0.05" />
<rect x="9" y="10" width="1" height="1" fill="#d3d3d3" stroke="#d3d3d3" stroke-width="0.05" />
<rect x="9" y="11" width="1" height="1" fill="#d3d3d3" stroke="#d3d3d3" stroke-width="0.05" />
<rect x="9" y="12" width="1" height="1" fill="#ffffff" stroke="#ffffff" stroke-width="0.05" />
<rect x="9" y="13" width="1" height="1" fill="#555555" stroke="#555555" stroke-width="0.05" />
<rect x="9" y="14" width="1" height="1" fill="#ffffff" stroke="#ffffff" stroke-width="0.05" />
<rect x="9" y="15" width="1" height="1" fill="#d3d3d3" stroke="#d3d3d3" stroke-width="0.05" />
<rect x="9" y="16" width="1" height="1" fill="#aaaaaa" stroke="#aaaaaa" stroke-width="0.05" />
<rect x="9" y="17" width="1" height="1" fill="#555555" stroke="#555555" stroke-width="0.05" />
<rect x="9" y="18" width="1" height="1" fill="#555555" stroke="#555555" stroke-width="0.05" />
<rect x="9" y="19" width="1" height="1" fill="#555555" stroke="#555555" stroke-width="0.05" />
<rect x="9" y="20" width="1" height="1" fill="#555555" stroke="#555555" stroke-width="0.05" />
<rect x="10" y="7" width="1" height="1" fill="#555555" stroke="#555555" stroke-width="0.05" />
<rect x="10" y="8" width="1" height="1" fill="#555555" stroke="#555555" stroke-width="0.05" />
<rect x="10" y="9" width="1" height="1" fill="#555555" stroke="#555555" stroke-width="0.05" />
<rect x="10" y="10" width="1" height="1" fill="#555555" stroke="#555555" stroke-width="0.05" />
<rect x="10" y="11" width="1" height="1" fill="#555555" stroke="#555555" stroke-width="0.05" />
<rect x="10" y="12" width="1" height="1" fill="#555555" stroke="#555555" stroke-width="0.05" />
<rect x="10" y="13" width="1" height="1" fill="#d3d3d3" stroke="#d3d3d3" stroke-width="0.05" />
<rect x="10" y="14" width="1" height="1" fill="#d3d3d3" stroke="#d3d3d3" stroke-width="0.05" />
<rect x="10" y="15" width="1" height="1" fill="#d3d3d3" stroke="#d3d3d3" stroke-width="0.05" />
<rect x="10" y="16" width="1" height="1" fill="#aaaaaa" stroke="#aaaaaa" stroke-width="0.05" />
<rect x="10" y="17" width="1" height="1" fill="#aaaaaa" stroke="#aaaaaa" stroke-width="0.05" />
<rect x="10" y="18" width="1" height="1" fill="#aaaaaa" stroke="#aaaaaa" stroke-width="0.05" />
<rect x="10" y="19" width="1" height="1" fill="#555555" stroke="#555555" stroke-width="0.05" />
<rect x="10" y="20" width="1" height="1" fill="#555555" stroke="#555555" stroke-width="0.05" />
<rect x="11" y="9" width="1" height="1" fill="#555555" stroke="#555555" stroke-width="0.05" />
<rect x="11" y="10" width="1" height="1" fill="#ffffff" stroke="#ffffff" stroke-width="0.05" />
<rect x="11" y="11" width="1" height="1" fill="#ffffff" stroke="#ffffff" stroke-width="0.05" />
<rect x="11" y="12" width="1" height="1" fill="#ffffff" stroke="#ffffff" stroke-width="0.05" />
<rect x="11" y="13" width="1" height="1" fill="#ffffff" stroke="#ffffff" stroke-width="0.05" />
<rect x="11" y="14" width="1" height="1" fill="#d3d3d3" stroke="#d3d3d3" stroke-width="0.05" />
<rect x="11" y="15" width="1" height="1" fill="#d3d3d3" stroke="#d3d3d3" stroke-width="0.05" />
<rect x="11" y="16" width="1" height="1" fill="#aaaaaa" stroke="#aaaaaa" stroke-width="0.05" />
<rect x="11" y="17" width="1" height="1" fill="#555555" stroke="#555555" stroke-width="0.05" />
<rect x="11" y="18" width="1" height="1" fill="#555555" stroke="#555555" stroke-width="0.05" />
<rect x="11" y="19" width="1" height="1" fill="#ff9999" stroke="#ff9999" stroke-width="0.05" />
<rect x="11" y="20" width="1" height="1" fill="#555555" stroke="#555555" stroke-width="0.05" />
<rect x="12" y="9" width="1" height="1" fill="#555555" stroke="#555555" stroke-width="0.05" />
<rect x="12" y="10" width="1" height="1" fill="#d3d3d3" stroke="#d3d3d3" stroke-width="0.05" />
<rect x="12" y="11" width="1" height="1" fill="#ffffff" stroke="#ffffff" stroke-width="0.05" />
<rect x="12" y="12" width="1" height="1" fill="#ffffff" stroke="#ffffff" stroke-width="0.05" />
<rect x="12" y="13" width="1" height="1" fill="#ffffff" stroke="#ffffff" stroke-width="0.05" />
<rect x="12" y="14" width="1" height="1" fill="#ffffff" stroke="#ffffff" stroke-width="0.05" />
<rect x="12" y="15" width="1" height="1" fill="#ffffff" stroke="#ffffff" stroke-width="0.05" />
<rect x="12" y="16" width="1" height="1" fill="#555555" stroke="#555555" stroke-width="0.05" />
<rect x="12" y="17" width="1" height="1" fill="#ffffff" stroke="#ffffff" stroke-width="0.05" />
<rect x="12" y="18" width="1" height="1" fill="#ffffff" stroke="#ffffff" stroke-width="0.05" />
<rect x="12" y="19" width="1" height="1" fill="#ffffff" stroke="#ffffff" stroke-width="0.05" />
<rect x="12" y="20" width="1" height="1" fill="#555555" stroke="#555555" stroke-width="0.05" />
<rect x="13" y="9" width="1" height="1" fill="#555555" stroke="#555555" stroke-width="0.05" />
<rect x="13" y="10" width="1" height="1" fill="#d3d3d3" stroke="#d3d3d3" stroke-width="0.05" />
<rect x="13" y="11" width="1" height="1" fill="#d3d3d3" stroke="#d3d3d3" stroke-width="0.05" />
<rect x="13" y="12" width="1" height="1" fill="#ffffff" stroke="#ffffff" stroke-width="0.05" />
<rect x="13" y="13" width="1" height="1" fill="#ffffff" stroke="#ffffff" stroke-width="0.05" />
<rect x="13" y="14" width="1" height="1" fill="#ffffff" stroke="#ffffff" stroke-width="0.05" />
<rect x="13" y="15" width="1" height="1" fill="#d3d3d3" stroke="#d3d3d3" stroke-width="0.05" />
<rect x="13" y="16" width="1" height="1" fill="#d3d3d3" stroke="#d3d3d3" stroke-width="0.05" />
<rect x="13" y="17" width="1" height="1" fill="#ffffff" stroke="#ffffff" stroke-width="0.05" />
<rect x="13" y="18" width="1" height="1" fill="#ffffff" stroke="#ffffff" stroke-width="0.05" />
<rect x="13" y="19" width="1" height="1" fill="#555555" stroke="#555555" stroke-width="0.05" />
<rect x="13" y="20" width="1" height="1" fill="#555555" stroke="#555555" stroke-width="0.05" />
<rect x="14" y="9" width="1" height="1" fill="#555555" stroke="#555555" stroke-width="0.05" />
<rect x="14" y="10" width="1" height="1" fill="#d3d3d3" stroke="#d3d3d3" stroke-width="0.05" />
<rect x="14" y="11" width="1" height="1" fill="#d3d3d3" stroke="#d3d3d3" stroke-width="0.05" />
<rect x="14" y="12" width="1" height="1" fill="#d3d3d3" stroke="#d3d3d3" stroke-width="0.05" />
<rect x="14" y="13" width="1" height="1" fill="#ffffff" stroke="#ffffff" stroke-width="0.05" />
<rect x="14" y="14" width="1" height="1" fill="#ffffff" stroke="#ffffff" stroke-width="0.05" />
<rect x="14" y="15" width="1" height="1" fill="#d3d3d3" stroke="#d3d3d3" stroke-width="0.05" />
<rect x="14" y="16" width="1" height="1" fill="#d3d3d3" stroke="#d3d3d3" stroke-width="0.05" />
<rect x="14" y="17" width="1" height="1" fill="#d3d3d3" stroke="#d3d3d3" stroke-width="0.05" />
<rect x="14" y="18" width="1" height="1" fill="#555555" stroke="#555555" stroke-width="0.05" />
<rect x="14" y="19" width="1" height="1" fill="#555555" stroke="#555555" stroke-width="0.05" />
<rect x="15" y="9" width="1" height="1" fill="#555555" stroke="#555555" stroke-width="0.05" />
<rect x="15" y="10" width="1" height="1" fill="#555555" stroke="#555555" stroke-width="0.05" />
<rect x="15" y="11" width="1" height="1" fill="#d3d3d3" stroke="#d3d3d3" stroke-width="0.05" />
<rect x="15" y="12" width="1" height="1" fill="#ffffff" stroke="#ffffff" stroke-width="0.05" />
<rect x="15" y="13" width="1" height="1" fill="#ffffff" stroke="#ffffff" stroke-width="0.05" />
<rect x="15" y="14" width="1" height="1" fill="#ffffff" stroke="#ffffff" stroke-width="0.05" />
<rect x="15" y="15" width="1" height="1" fill="#ffffff" stroke="#ffffff" stroke-width="0.05" />
<rect x="15" y="16" width="1" height="1" fill="#d3d3d3" stroke="#d3d3d3" stroke-width="0.05" />
<rect x="15" y="17" width="1" height="1" fill="#555555" stroke="#555555" stroke-width="0.05" />
<rect x="15" y="18" width="1" height="1" fill="#555555" stroke="#555555" stroke-width="0.05" />
<rect x="16" y="10" width="1" height="1" fill="#555555" stroke="#555555" stroke-width="0.05" />
<rect x="16" y="11" width="1" height="1" fill="#555555" stroke="#555555" stroke-width="0.05" />
<rect x="16" y="12" width="1" height="1" fill="#555555" stroke="#555555" stroke-width="0.05" />
<rect x="16" y="13" width="1" height="1" fill="#ffffff" stroke="#ffffff" stroke-width="0.05" />
<rect x="16" y="14" width="1" height="1" fill="#ffffff" stroke="#ffffff" stroke-width="0.05" />
<rect x="16" y="15" width="1" height="1" fill="#ffffff" stroke="#ffffff" stroke-width="0.05" />
<rect x="16" y="16" width="1" height="1" fill="#555555" stroke="#555555" stroke-width="0.05" />
<rect x="16" y="17" width="1" height="1" fill="#555555" stroke="#555555" stroke-width="0.05" />
<rect x="17" y="7" width="1" height="1" fill="#555555" stroke="#555555" stroke-width="0.05" />
<rect x="17" y="8" width="1" height="1" fill="#555555" stroke="#555555" stroke-width="0.05" />
<rect x="17" y="9" width="1" height="1" fill="#555555" stroke="#555555" stroke-width="0.05" />
<rect x="17" y="12" width="1" height="1" fill="#555555" stroke="#555555" stroke-width="0.05" />
<rect x="17" y="13" width="1" height="1" fill="#ffffff" stroke="#ffffff" stroke-width="0.05" />
<rect x="17" y="14" width="1" height="1" fill="#555555" stroke="#555555" stroke-width="0.05" />
<rect x="17" y="15" width="1" height="1" fill="#555555" stroke="#555555" stroke-width="0.05" />
<rect x="17" y="16" width="1" height="1" fill="#555555" stroke="#555555" stroke-width="0.05" />
<rect x="18" y="7" width="1" height="1" fill="#555555" stroke="#555555" stroke-width="0.05" />
<rect x="18" y="8" width="1" height="1" fill="#d3d3d3" stroke="#d3d3d3" stroke-width="0.05" />
<rect x="18" y="9" width="1" height="1" fill="#555555" stroke="#555555" stroke-width="0.05" />
<rect x="18" y="10" width="1" height="1" fill="#555555" stroke="#555555" stroke-width="0.05" />
<rect x="18" y="11" width="1" height="1" fill="#555555" stroke="#555555" stroke-width="0.05" />
<rect x="18" y="12" width="1" height="1" fill="#555555" stroke="#555555" stroke-width="0.05" />
<rect x="18" y="13" width="1" height="1" fill="#ffffff" stroke="#ffffff" stroke-width="0.05" />
<rect x="18" y="14" width="1" height="1" fill="#555555" stroke="#555555" stroke-width="0.05" />
<rect x="19" y="7" width="1" height="1" fill="#555555" stroke="#555555" stroke-width="0.05" />
<rect x="19" y="8" width="1" height="1" fill="#555555" stroke="#555555" stroke-width="0.05" />
<rect x="19" y="9" width="1" height="1" fill="#d3d3d3" stroke="#d3d3d3" stroke-width="0.05" />
<rect x="19" y="10" width="1" height="1" fill="#d3d3d3" stroke="#d3d3d3" stroke-width="0.05" />
<rect x="19" y="11" width="1" height="1" fill="#ffffff" stroke="#ffffff" stroke-width="0.05" />
<rect x="19" y="12" width="1" height="1" fill="#ffffff" stroke="#ffffff" stroke-width="0.05" />
<rect x="19" y="13" width="1" height="1" fill="#555555" stroke="#555555" stroke-width="0.05" />
<rect x="19" y="14" width="1" height="1" fill="#555555" stroke="#555555" stroke-width="0.05" />
<rect x="20" y="9" width="1" height="1" fill="#555555" stroke="#555555" stroke-width="0.05" />
<rect x="20" y="10" width="1" height="1" fill="#555555" stroke="#555555" stroke-width="0.05" />
<rect x="20" y="11" width="1" height="1" fill="#555555" stroke="#555555" stroke-width="0.05" />
<rect x="20" y="12" width="1" height="1" fill="#555555" stroke="#555555" stroke-width="0.05" />
<rect x="20" y="13" width="1" height="1" fill="#555555" stroke="#555555" stroke-width="0.05" />
</svg>
